<svg xmlns="http://www.w3.org/2000/svg" viewBox="0 0 256 256" role="img" aria-labelledby="title desc">
  <title id="title">Learn Classical Apologetics logo</title>
  <desc id="desc">Cream LCA initials above an open book on a deep green field.</desc>
  <rect width="256" height="256" fill="#073B1F"/>
  <text x="128" y="137" text-anchor="middle" fill="#F9F2DB"
        font-family="Georgia, 'Times New Roman', serif" font-size="103" font-weight="700"
        letter-spacing="-3">LCA</text>
  <path fill="#F9F2DB" d="M31 161c38-6 68 1 95 25v16c-25-18-55-27-101-23l6-18z"/>
  <path fill="#F9F2DB" d="M225 161c-38-6-68 1-95 25v16c25-18 55-27 101-23l-6-18z"/>
  <path fill="#F9F2DB" d="M20 185c45-5 81 4 108 27v18c-28-20-65-28-115-22l7-23z"/>
  <path fill="#F9F2DB" d="M236 185c-45-5-81 4-108 27v18c28-20 65-28 115-22l-7-23z"/>
</svg>